name analog
datacolumns 19
datarows 32
range 0.0 0.0155
endheader
time	ground_force_vx	ground_force_vy	ground_force_vz	ground_force_px	ground_force_py	ground_force_pz	l_ground_force_vx	l_ground_force_vy	l_ground_force_vz	l_ground_force_px	l_ground_force_py	l_ground_force_pz	ground_torque_x	ground_torque_y	ground_torque_z	l_ground_torque_x	l_ground_torque_y	l_ground_torque_z
0.0	-0.0	-0.0	-0.0	3.7468414306640634	30.40206527709961	-774.8768310546875	-6.2004008293151855	1.0226080417633057	-26.609155654907227	-0.0	-0.0	-0.0	-0.0	-0.0	-0.0	9500.0595703125	1252.95458984375	-2080.6328125
0.0005	-0.0	-0.0	-0.0	4.040048599243164	31.02985191345215	-776.0375366210938	-6.13959264755249	1.069093942642212	-23.778812408447266	-0.0	-0.0	-0.0	-0.0	-0.0	-0.0	8248.3486328125	1114.77001953125	-1965.0228271484373
0.001	-0.0	-0.0	-0.0	4.120623588562012	30.74152565002441	-778.4420776367188	-5.166943073272705	0.2374283224344253	-18.146211624145508	-0.0	-0.0	-0.0	-0.0	-0.0	-0.0	6388.65283203125	500.7982177734375	-1678.228515625
0.0015	-0.0	-0.0	-0.0	3.618964433670044	30.46576499938965	-778.4085693359375	-0.0	-0.0	-0.0	-0.0	-0.0	-0.0	-0.0	-0.0	-0.0	-0.0	-0.0	-0.0
0.002	-0.0	-0.0	-0.0	3.9085748195648193	30.758325576782227	-777.4481201171875	-0.0	-0.0	-0.0	-0.0	-0.0	-0.0	-0.0	-0.0	-0.0	-0.0	-0.0	-0.0
0.0025	-0.0	-0.0	-0.0	3.2924914360046387	31.11479949951172	-777.7022705078125	-0.0	-0.0	-0.0	-0.0	-0.0	-0.0	-0.0	-0.0	-0.0	-0.0	-0.0	-0.0
0.003	-0.0	-0.0	-0.0	2.740874052047729	31.33285140991211	-775.3275756835938	-0.0	-0.0	-0.0	-0.0	-0.0	-0.0	-0.0	-0.0	-0.0	-0.0	-0.0	-0.0
0.0035	-0.0	-0.0	-0.0	2.4331376552581787	31.203784942626957	-773.9463500976562	-0.0	-0.0	-0.0	-0.0	-0.0	-0.0	-0.0	-0.0	-0.0	-0.0	-0.0	-0.0
0.004	-0.0	-0.0	-0.0	2.38433575630188	30.61227226257324	-773.3355712890625	-0.0	-0.0	-0.0	-0.0	-0.0	-0.0	-0.0	-0.0	-0.0	-0.0	-0.0	-0.0
0.0045000000000000005	-0.0	-0.0	-0.0	2.230262756347656	30.644800186157227	-771.3767700195312	-0.0	-0.0	-0.0	-0.0	-0.0	-0.0	-0.0	-0.0	-0.0	-0.0	-0.0	-0.0
0.005	-0.0	-0.0	-0.0	2.6603543758392334	30.523887634277344	-770.5438842773438	-0.0	-0.0	-0.0	-0.0	-0.0	-0.0	-0.0	-0.0	-0.0	-0.0	-0.0	-0.0
0.0055	-0.0	-0.0	-0.0	2.959836483001709	30.377592086791992	-768.3236694335938	-0.0	-0.0	-0.0	-0.0	-0.0	-0.0	-0.0	-0.0	-0.0	-0.0	-0.0	-0.0
0.006	-0.0	-0.0	-0.0	3.3558411598205566	29.688282012939453	-768.779296875	-0.0	-0.0	-0.0	-0.0	-0.0	-0.0	-0.0	-0.0	-0.0	-0.0	-0.0	-0.0
0.006500000000000001	-0.0	-0.0	-0.0	4.274294853210449	29.53337287902832	-766.7846069335938	-0.0	-0.0	-0.0	-0.0	-0.0	-0.0	-0.0	-0.0	-0.0	-0.0	-0.0	-0.0
0.007	-0.0	-0.0	-0.0	4.549736022949219	28.95193672180176	-768.7503051757812	-0.0	-0.0	-0.0	-0.0	-0.0	-0.0	-0.0	-0.0	-0.0	-0.0	-0.0	-0.0
0.0075	-0.0	-0.0	-0.0	5.352630615234375	29.188650131225582	-769.5181884765625	-0.0	-0.0	-0.0	-0.0	-0.0	-0.0	-0.0	-0.0	-0.0	-0.0	-0.0	-0.0
0.008	-0.0	-0.0	-0.0	5.6584553718566895	28.67709350585937	-768.5497436523438	-0.0	-0.0	-0.0	-0.0	-0.0	-0.0	-0.0	-0.0	-0.0	-0.0	-0.0	-0.0
0.0085	-0.0	-0.0	-0.0	5.977104187011719	28.6622314453125	-767.6993408203125	-0.0	-0.0	-0.0	-0.0	-0.0	-0.0	-0.0	-0.0	-0.0	-0.0	-0.0	-0.0
0.009000000000000001	-0.0	-0.0	-0.0	6.259781837463379	27.97942924499512	-769.54931640625	-0.0	-0.0	-0.0	-0.0	-0.0	-0.0	-0.0	-0.0	-0.0	-0.0	-0.0	-0.0
0.0095	-0.0	-0.0	-0.0	6.653349876403809	28.08355712890625	-766.8425903320312	-0.0	-0.0	-0.0	-0.0	-0.0	-0.0	-0.0	-0.0	-0.0	-0.0	-0.0	-0.0
0.01	-0.0	-0.0	-0.0	5.813498020172119	27.652626037597656	-767.6079711914062	-0.0	-0.0	-0.0	-0.0	-0.0	-0.0	-0.0	-0.0	-0.0	-0.0	-0.0	-0.0
0.0105	-0.0	-0.0	-0.0	5.240557670593262	27.273902893066406	-766.9900512695312	-0.0	-0.0	-0.0	-0.0	-0.0	-0.0	-0.0	-0.0	-0.0	-0.0	-0.0	-0.0
0.011	-0.0	-0.0	-0.0	5.299879550933838	27.006511688232425	-764.9589233398438	-0.0	-0.0	-0.0	-0.0	-0.0	-0.0	-0.0	-0.0	-0.0	-0.0	-0.0	-0.0
0.0115	-0.0	-0.0	-0.0	5.70224666595459	27.141456604003903	-762.7256469726562	-0.0	-0.0	-0.0	-0.0	-0.0	-0.0	-0.0	-0.0	-0.0	-0.0	-0.0	-0.0
0.012	-0.0	-0.0	-0.0	5.6489458084106445	25.78734397888184	-760.1283569335938	-0.0	-0.0	-0.0	-0.0	-0.0	-0.0	-0.0	-0.0	-0.0	-0.0	-0.0	-0.0
0.0125	-0.0	-0.0	-0.0	5.627352714538574	25.387996673583984	-757.9803466796875	-0.0	-0.0	-0.0	-0.0	-0.0	-0.0	-0.0	-0.0	-0.0	-0.0	-0.0	-0.0
0.013000000000000001	-0.0	-0.0	-0.0	6.280012130737305	24.9892520904541	-755.0987548828125	-0.0	-0.0	-0.0	-0.0	-0.0	-0.0	-0.0	-0.0	-0.0	-0.0	-0.0	-0.0
0.0135	-0.0	-0.0	-0.0	6.855170249938965	23.64760971069336	-752.0590209960938	-0.0	-0.0	-0.0	-0.0	-0.0	-0.0	-0.0	-0.0	-0.0	-0.0	-0.0	-0.0
0.014	-0.0	-0.0	-0.0	7.589832782745361	23.050107955932617	-750.181640625	-6.537466526031494	-1.5667994022369385	-20.3416805267334	-0.0	-0.0	-0.0	-0.0	-0.0	-0.0	7451.92138671875	1044.853271484375	-2358.80224609375
0.0145	-0.0	-0.0	-0.0	7.843620777130127	22.69376373291016	-746.0253295898438	-10.201740264892578	-4.938385963439941	-27.23382568359375	-0.0	-0.0	-0.0	-0.0	-0.0	-0.0	9348.1953125	1605.2254638671875	-3931.849365234375
0.015	-0.0	-0.0	-0.0	8.124979972839355	21.86471939086914	-742.7914428710938	-11.998703002929688	-6.624126434326172	-33.578243255615234	-0.0	-0.0	-0.0	-0.0	-0.0	-0.0	11580.921875	2132.345703125	-4714.12109375
0.0155	-0.0	-0.0	-0.0	8.124924659729004	20.726808547973636	-740.05078125	-12.766825675964355	-6.7274370193481445	-42.217716217041016	-0.0	-0.0	-0.0	-0.0	-0.0	-0.0	14574.509765625	2247.93603515625	-4823.9140625
